<?xml version="1.0" encoding="UTF-8"?>
<svg id="Capa_2" data-name="Capa 2" xmlns="http://www.w3.org/2000/svg" viewBox="0 0 134.17 35.43">
  <g id="Capa_1-2" data-name="Capa 1">
    <g>
      <path d="m54.58,3.07c1.12,1.1,1.69,2.71,1.69,4.83v10.27h-2.35v-9.85c0-1.62-.34-2.81-1.03-3.57s-1.74-1.15-3.17-1.15-2.51.38-3.19,1.15-1.01,1.96-1.01,3.57v9.85h-2.32V7.9c0-2.13.56-3.75,1.67-4.84,1.12-1.09,2.73-1.64,4.85-1.64s3.74.55,4.86,1.65Zm-10.66,7.33h12.1v1.92h-12.1v-1.92Z" fill="#1d1d1b"/>
      <path d="m59.76,7.61c.44-.74,1.05-1.29,1.81-1.65s1.65-.54,2.65-.54,1.89.18,2.66.54c.78.36,1.38.91,1.83,1.65.44.74.66,1.65.66,2.74v7.83h-2.35v-7.27c0-1.23-.25-2.12-.76-2.68-.51-.55-1.19-.82-2.04-.82s-1.5.27-2.01.82c-.51.55-.76,1.44-.76,2.68v7.27h-2.35v-7.83c0-1.08.22-2,.66-2.74Zm7.9,0c.44-.74,1.05-1.29,1.81-1.65s1.65-.54,2.65-.54,1.89.18,2.66.54c.77.36,1.38.91,1.83,1.65.44.74.66,1.65.66,2.74v7.83h-2.35v-7.27c0-1.23-.25-2.12-.76-2.68-.51-.55-1.19-.82-2.04-.82s-1.5.27-2.01.82c-.51.55-.76,1.44-.76,2.68v7.27h-2.35v-7.83c0-1.08.22-2,.66-2.74Z" fill="#1d1d1b"/>
      <path d="m79.05,0h2.33v9.4l-.02,2.52h-2.3V0Zm3.28,17.66c-1-.52-1.8-1.28-2.39-2.27-.59-.99-.89-2.15-.89-3.46s.3-2.47.89-3.46,1.39-1.75,2.39-2.27c1-.53,2.11-.79,3.33-.79s2.3.26,3.3.79c1,.52,1.8,1.28,2.4,2.27.6.99.9,2.15.9,3.46s-.3,2.47-.9,3.46c-.6.99-1.4,1.75-2.4,2.27-1,.53-2.1.79-3.3.79s-2.33-.26-3.33-.79Zm5.51-1.75c.66-.36,1.17-.88,1.55-1.57.38-.69.56-1.5.56-2.41s-.19-1.72-.56-2.41c-.38-.69-.89-1.22-1.55-1.57-.66-.36-1.38-.54-2.16-.54s-1.55.18-2.2.54c-.65.36-1.17.88-1.55,1.57-.38.69-.57,1.5-.57,2.41s.19,1.72.57,2.41c.38.69.9,1.22,1.55,1.57.65.36,1.38.54,2.17.54s1.53-.18,2.19-.54Z" fill="#1d1d1b"/>
      <path d="m95.93,17.57c-.46-.57-.69-1.42-.69-2.57V0h2.35v14.75c0,.6.1.99.3,1.16.2.18.52.26.95.26v2.2h-.98c-.83.03-1.48-.23-1.94-.8Z" fill="#1d1d1b"/>
      <path d="m104.16,17.66c-1.01-.52-1.8-1.28-2.39-2.27-.58-.99-.88-2.15-.88-3.46s.29-2.47.88-3.46c.58-.99,1.38-1.75,2.39-2.27,1.01-.53,2.11-.79,3.31-.79s2.3.26,3.31.79c1.01.52,1.8,1.28,2.39,2.27.58.99.88,2.15.88,3.46s-.29,2.47-.88,3.46c-.58.99-1.38,1.75-2.39,2.27-1.01.53-2.11.79-3.31.79s-2.3-.26-3.31-.79Zm5.49-1.75c.65-.36,1.17-.88,1.55-1.57.38-.69.57-1.5.57-2.41s-.19-1.72-.57-2.41c-.38-.69-.9-1.22-1.55-1.57-.65-.36-1.38-.54-2.17-.54s-1.55.18-2.2.54c-.65.36-1.16.88-1.54,1.57-.38.69-.56,1.5-.56,2.41s.19,1.72.56,2.41c.38.69.89,1.22,1.54,1.57.65.36,1.38.54,2.18.54s1.55-.18,2.2-.54Zm2.23-3.61l2.17-.38v6.25h-2l-.17-5.88Z" fill="#1d1d1b"/>
      <path d="m117.86,17.57c-.76-.55-1.14-1.42-1.14-2.6V2.4h2.35v12.07c0,.58.19,1.02.57,1.3.38.28.9.42,1.55.42h3.05v2.2h-3.48c-1.18,0-2.15-.27-2.91-.83Zm-.16-11.9h6.75v1.92h-6.75v-1.92Z" fill="#1d1d1b"/>
      <path d="m127.58,17.57c-.76-.55-1.14-1.42-1.14-2.6V2.4h2.35v12.07c0,.58.19,1.02.57,1.3.38.28.9.42,1.55.42h3.05v2.2h-3.48c-1.18,0-2.15-.27-2.91-.83Zm-.16-11.9h6.75v1.92h-6.75v-1.92Z" fill="#1d1d1b"/>
    </g>
    <g>
      <polygon points="17.26 15.49 39.7 21.56 24.98 35 1.6 26.49 17.26 15.49" fill="#384995" stroke="#fff" stroke-miterlimit="10" stroke-width=".75"/>
      <polygon points="16.56 9.12 38.16 15.55 23.77 28.58 1.28 19.71 16.56 9.12" fill="#384995" stroke="#fff" stroke-miterlimit="10" stroke-width=".75"/>
      <polygon points="15.43 2.44 36.09 9.17 22.26 22.02 .76 12.84 15.43 2.44" fill="#384995" stroke="#fff" stroke-miterlimit="10" stroke-width=".75"/>
    </g>
    <g>
      <path d="m43.36,21.43v-.7h7.28v.7h-7.28Zm3.26,9.45v-9.86h.73v9.86h-.73Z" fill="#1d1d1b"/>
      <path d="m52.51,31.01c-.48,0-.9-.07-1.26-.21-.36-.14-.66-.37-.88-.68-.22-.31-.33-.73-.33-1.24,0-.4.1-.76.29-1.07.19-.31.48-.58.88-.81.39-.23.9-.41,1.52-.55.62-.14,1.36-.23,2.22-.27l-.04.62c-.92.05-1.69.16-2.3.34s-1.06.41-1.37.7c-.31.29-.46.63-.46,1.04,0,.49.16.86.48,1.11.32.26.79.38,1.39.38.27,0,.55-.05.84-.14.29-.09.57-.23.83-.41s.48-.39.64-.63l.06.62c-.23.32-.57.6-1,.84-.43.24-.94.36-1.5.36Zm2.44-.13l-.15-.98v-3.85c0-.7-.18-1.2-.55-1.51-.37-.31-.87-.46-1.49-.46-.4,0-.78.06-1.13.18-.35.12-.71.32-1.07.62l.21-.9c.31-.22.62-.38.94-.48s.69-.14,1.11-.14c.55,0,1.03.1,1.43.31.41.21.72.5.95.88.22.38.34.85.34,1.41v4.91h-.57Z" fill="#1d1d1b"/>
      <path d="m57.37,30.88v-10.85h.73v10.05l-.22.8h-.5Zm2.69.11c-.5,0-.93-.07-1.32-.2-.38-.14-.76-.34-1.13-.62l.34-.5c.34.21.67.37.98.48.31.1.68.15,1.12.15.54,0,1.01-.13,1.4-.39.39-.26.7-.62.92-1.1.22-.48.34-1.05.34-1.71,0-.94-.23-1.68-.69-2.23-.46-.54-1.08-.81-1.86-.81-.45,0-.84.07-1.18.22-.34.15-.69.4-1.06.76v-.77c.27-.27.6-.49.99-.66s.83-.25,1.32-.25c.67,0,1.25.14,1.73.43s.85.7,1.1,1.26c.25.56.38,1.24.38,2.05s-.15,1.48-.43,2.07-.69,1.04-1.2,1.35c-.51.31-1.09.47-1.74.47Z" fill="#1d1d1b"/>
      <path d="m64.89,30.88v-10.85h.73v10.85h-.73Z" fill="#1d1d1b"/>
      <path d="m70.4,30.99c-.46,0-.89-.07-1.3-.2-.41-.14-.78-.35-1.11-.64-.33-.29-.59-.67-.78-1.15-.19-.48-.29-1.08-.29-1.79,0-.87.15-1.59.46-2.16.3-.57.7-.99,1.2-1.27.5-.28,1.04-.42,1.62-.42.66,0,1.21.16,1.65.47.44.31.76.75.97,1.32.21.56.32,1.24.32,2.04h-5.8v-.64h5.25l-.15.18c-.08-.91-.31-1.59-.68-2.02-.37-.43-.89-.65-1.58-.65-.42,0-.82.1-1.21.31-.39.21-.71.54-.95,1s-.37,1.07-.37,1.83c0,.61.08,1.11.23,1.51.15.4.37.72.64.95.27.23.57.39.9.5.33.1.67.15,1.02.15.44,0,.84-.05,1.22-.14s.73-.23,1.06-.42l-.11.78c-.28.15-.6.27-.95.35s-.77.13-1.26.13Z" fill="#1d1d1b"/>
      <path d="m74.17,30.88v-7.42h.59l.14,1.41v6.01h-.73Zm.66-5.4v-.67c.4-.49.88-.86,1.43-1.11.55-.24,1.08-.36,1.58-.36l.08.7c-.36,0-.73.06-1.11.19-.37.13-.73.3-1.08.51-.35.21-.65.46-.91.74Z" fill="#1d1d1b"/>
      <path d="m81.31,30.99c-.66,0-1.23-.15-1.71-.46s-.85-.75-1.1-1.32c-.25-.57-.38-1.25-.38-2.04s.14-1.5.42-2.07c.28-.57.66-1.01,1.14-1.31s1.02-.46,1.63-.46c.67,0,1.25.16,1.72.47.48.31.84.75,1.1,1.32s.38,1.25.38,2.03-.13,1.46-.39,2.04c-.26.57-.63,1.02-1.11,1.33-.48.31-1.05.47-1.7.47Zm.03-.69c.73,0,1.32-.27,1.77-.81.45-.54.68-1.32.68-2.32s-.23-1.77-.68-2.32c-.45-.55-1.05-.82-1.8-.82s-1.3.27-1.76.8c-.47.53-.7,1.31-.7,2.32s.24,1.83.71,2.36c.48.53,1.07.79,1.78.79Z" fill="#1d1d1b"/>
      <path d="m87.51,30.96c-.41,0-.8-.05-1.18-.15s-.72-.25-1.02-.44l-.11-.87c.33.24.68.43,1.07.57.39.14.8.2,1.24.2.57,0,1.02-.11,1.36-.34.34-.23.5-.58.5-1.04,0-.2-.04-.38-.11-.55-.07-.17-.21-.34-.43-.5-.22-.16-.56-.3-1.03-.43l-.21-.06c-.75-.23-1.27-.5-1.58-.8-.31-.3-.46-.71-.46-1.25,0-.62.21-1.1.64-1.45s.97-.52,1.63-.52c.38,0,.71.04.99.13.28.08.54.19.78.31l.1.78c-.18-.1-.36-.19-.56-.27-.2-.07-.4-.13-.62-.18s-.45-.07-.7-.07c-.48,0-.85.11-1.13.33-.28.22-.42.52-.42.92,0,.24.05.45.15.61.1.16.26.31.48.43.22.12.52.24.9.36l.21.06c.58.18,1.02.37,1.32.57.3.2.5.43.62.68.11.25.17.54.17.87,0,.46-.1.84-.31,1.16-.21.32-.5.56-.89.71-.39.16-.85.24-1.39.24Z" fill="#1d1d1b"/>
    </g>
  </g>
</svg>